<?xml version="1.0" encoding="UTF-8"?>
<svg width="24px" height="24px" viewBox="0 0 24 24" version="1.1" xmlns="http://www.w3.org/2000/svg" xmlns:xlink="http://www.w3.org/1999/xlink">
    <title>github</title>
    <defs>
        <path d="M0,0 L23.5,0 L23.5,23.113 L0,23.113 L0,0 Z" id="path-1"></path>
    </defs>
    <g id="github" stroke="none" fill="none" transform="translate(0.5079, 0.1936)" xlink:href="#path-1" fill-rule="evenodd" stroke-width="1">
        <g transform="translate(3.75, 3.75)" fill="#62748E" id="Shape">
            <path d="M5.43437481,12.4187498 C5.43437481,12.3468742 5.35312462,12.296875 5.25937462,12.3062496 C5.16874981,12.3062496 5.09687471,12.3562498 5.09687471,12.4187498 C5.09687471,12.4906254 5.16874981,12.5406246 5.2718749,12.53125 C5.36249971,12.53125 5.43437481,12.4812498 5.43437481,12.4187498 Z M4.46249962,12.2781248 C4.44062471,12.3406248 4.50312471,12.4124994 4.59687471,12.4312496 C4.6781249,12.4624996 4.7718749,12.4312496 4.79062462,12.3687496 C4.80937433,12.3062496 4.74999952,12.234375 4.65624952,12.2062492 C4.57499933,12.1843739 4.48437452,12.2156239 4.46249962,12.2781239 L4.46249962,12.2781248 Z M5.84374952,12.2249994 C5.75312471,12.2468748 5.69062471,12.3062496 5.69999933,12.3781242 C5.70937443,12.4406242 5.79062414,12.4812489 5.88437414,12.4593744 C5.97499895,12.437499 6.03749895,12.3781242 6.02812433,12.3156242 C6.01874924,12.2562494 5.93437433,12.2156239 5.84374952,12.2249994 Z M7.9000001,0.25 C3.56562471,0.25 0.249999523,3.54062462 0.249999523,7.875 C0.249999523,11.3406248 2.43124962,14.3062496 5.54687452,15.3500004 C5.94687462,15.421875 6.08749962,15.1750002 6.08749962,14.9718752 C6.08749962,14.7781248 6.07812452,13.7093754 6.07812452,13.0531254 C6.07812452,13.0531254 3.89062452,13.5218754 3.43124962,12.1218758 C3.43124962,12.1218758 3.07499933,11.2125006 2.56249905,10.9781256 C2.56249905,10.9781256 1.84687376,10.4875002 2.61249876,10.4968758 C2.61249876,10.4968758 3.39062405,10.5593758 3.81874895,11.3031254 C4.50312376,12.5093756 5.64999866,12.1625004 6.09687424,11.9562502 C6.16874933,11.4562502 6.37187433,11.109375 6.59687424,10.9031248 C4.84999943,10.7093744 3.08749914,10.4562502 3.08749914,7.44999981 C3.08749914,6.59062481 3.32499933,6.15937471 3.82499933,5.609375 C3.74374914,5.40625 3.47812414,4.56875038 3.90624905,3.48750019 C4.55937386,3.28437519 6.06249905,4.33125019 6.06249905,4.33125019 C6.68749905,4.15625 7.35937405,4.06562519 8.02499914,4.06562519 C8.69062424,4.06562519 9.36249924,4.15625 9.98749924,4.33125019 C9.98749924,4.33125019 11.4906244,3.28125 12.1437492,3.48750019 C12.5718746,4.57187462 12.3062496,5.40625 12.2249994,5.609375 C12.7249994,6.1624999 13.031249,6.59375 13.031249,7.44999981 C13.031249,10.4656248 11.1906242,10.7062492 9.44374943,10.9031248 C9.73124981,11.1499996 9.97499943,11.6187496 9.97499943,12.3531246 C9.97499943,13.40625 9.96562481,14.7093744 9.96562481,14.9656248 C9.96562481,15.1687498 10.109375,15.4156246 10.5062494,15.34375 C13.6312494,14.3062496 15.7499995,11.3406248 15.7499995,7.875 C15.7499995,3.54062462 12.234374,0.25 7.89999914,0.25 L7.9000001,0.25 Z M3.28749895,11.0281248 C3.24687386,11.0593748 3.25624895,11.1312494 3.30937386,11.1906252 C3.35937405,11.2406254 3.43124914,11.2624998 3.47187424,11.2218752 C3.51249933,11.1906252 3.50312424,11.1187506 3.44999933,11.0593748 C3.39999914,11.0093746 3.32812405,10.9875002 3.28749895,11.0281248 Z M2.94999886,10.7749996 C2.92812395,10.8156242 2.95937395,10.8656244 3.02187395,10.8968744 C3.07187414,10.9281244 3.13437414,10.9187498 3.15624952,10.874999 C3.17812443,10.8343744 3.14687443,10.7843742 3.08437443,10.7531242 C3.02187443,10.734374 2.97187424,10.7437496 2.94999886,10.7749996 Z M3.96249914,11.8874998 C3.91249895,11.9281244 3.93124914,12.0218744 4.00312424,12.0812502 C4.07499933,12.1531248 4.16562414,12.1625004 4.20624924,12.1125002 C4.24687433,12.0718756 4.22812414,11.9781256 4.16562414,11.9187498 C4.09687424,11.8468752 4.00312424,11.8374996 3.96249914,11.8874998 Z M3.60624886,11.4281244 C3.55624866,11.4593744 3.55624866,11.5406246 3.60624886,11.6124992 C3.65624905,11.6843739 3.74062443,11.7156239 3.78124952,11.6843739 C3.83124971,11.6437492 3.83124971,11.562499 3.78124952,11.4906235 C3.73749924,11.4187489 3.65624905,11.3874989 3.60624886,11.4281235 L3.60624886,11.4281244 Z" fill-rule="nonzero"></path>
        </g>
    </g>
</svg>