<?xml version="1.0" encoding="UTF-8"?>
<svg width="22px" height="23px" viewBox="0 0 22 23" version="1.1" xmlns="http://www.w3.org/2000/svg" xmlns:xlink="http://www.w3.org/1999/xlink">
    <title>linkedin</title>
    <defs>
        <path d="M0,0 L22,0 L22,22 L0,22 L0,0 Z" id="path-1"></path>
    </defs>
    <g id="linkedin" stroke="none" fill="none" transform="translate(0.0079, 0.75)" xlink:href="#path-1" fill-rule="evenodd" stroke-width="1">
        <g transform="translate(4, 3)" fill="#62748E" id="Shape">
            <path d="M13,1 L0.996875252,1 C0.44687508,1 0,1.453125 0,2.00937462 L0,13.9906254 C0,14.546875 0.44687508,15 0.996875252,15 L13,15 C13.5500002,15 14,14.546875 14,13.9906254 L14,2.00937462 C14,1.453125 13.5500002,1 13,1 Z M4.23125014,13 L2.1562504,13 L2.1562504,6.3187499 L4.23437533,6.3187499 L4.23437533,13 L4.23125014,13 Z M3.19375027,5.40625 C2.5281252,5.40625 1.99062531,4.86562538 1.99062531,4.203125 C1.99062531,3.54062462 2.52812568,3 3.19375075,3 C3.85625063,3 4.39687571,3.54062462 4.39687571,4.203125 C4.39687571,4.86874962 3.85937582,5.40625 3.19375075,5.40625 L3.19375027,5.40625 Z M12.0093747,13 L9.93437495,13 L9.93437495,9.75 C9.93437495,8.97500038 9.91874995,7.9781251 8.85624998,7.9781251 C7.77499983,7.9781251 7.60937522,8.82187462 7.60937522,9.69375038 L7.60937522,13 L5.53437548,13 L5.53437548,6.3187499 L7.52500032,6.3187499 L7.52500032,7.23124981 L7.55312512,7.23124981 C7.83124992,6.70624971 8.50937481,6.15312481 9.51875034,6.15312481 C11.6187497,6.15312481 12.0093747,7.5374999 12.0093747,9.33749962 L12.0093747,13 Z" fill-rule="nonzero"></path>
        </g>
    </g>
</svg>