<?xml version="1.0" encoding="UTF-8"?>
<svg width="35px" height="36px" viewBox="0 0 35 36" version="1.1" xmlns="http://www.w3.org/2000/svg" xmlns:xlink="http://www.w3.org/1999/xlink">
    <title>Logo</title>
    <defs>
        <path d="M0,0 L1728,0 L1728,2619.667 L0,2619.667 L0,0 Z" id="path-1"></path>
        <path d="M0,0 L1728,0 L1728,64 L0,64 L0,0 Z" id="path-2"></path>
        <path d="M0,0 L1200,0 L1200,36 L0,36 L0,0 Z" id="path-3"></path>
        <path d="M0,0 L35,0 L35,35 L0,35 L0,0 Z" id="path-4"></path>
    </defs>
    <g id="Website-v2" stroke="none" stroke-width="1" fill="none" fill-rule="evenodd">
        <g id="Home---Desktop" transform="translate(-288, -14)" xlink:href="#path-1">
            <use fill="#FFFFFF" xlink:href="#path-1"></use>
            <g id="Navbar" xlink:href="#path-2" fill="#3AC1D7" stroke-width="1">
                <g id="Container" transform="translate(264, 14)" xlink:href="#path-3">
                    <g id="Logo" transform="translate(24, 0.5)" xlink:href="#path-4">
                        <g id="Group">
                            <path d="M14.4893,2.38995 C15.3713,1.508 14.7466,0 13.4994,0 L1.4,0 C0.626802,0 0,0.626801 0,1.4 L0,13.4994 C0,14.7466 1.508,15.3713 2.38995,14.4893 L14.4893,2.38995 Z" id="Path" fill-rule="nonzero"></path>
                            <path d="M0.41005,22.4089 C0.147499,22.6714 0,23.0275 0,23.3988 L0,34.944 C0,34.9749 0.0250896,35 0.0560392,35 C0.0709017,35 0.0851554,34.9941 0.0956648,34.9836 L34.9836,0.0956656 C34.9941,0.0851559 35,0.0709036 35,0.0560407 C35,0.0250903 34.9749,0 34.944,0 L23.3988,0 C23.0275,0 22.6715,0.1475 22.4089,0.41005 L0.41005,22.4089 Z" id="Path" fill-rule="nonzero"></path>
                            <path d="M19.3952,21.6238 C19.9419,21.0771 20.8283,21.0771 21.3751,21.6238 L32.3613,32.6101 C33.2433,33.492 32.6186,35 31.3714,35 L9.39885,35 C8.15158,35 7.52695,33.492 8.4089,32.6101 L19.3952,21.6238 Z" id="Path" fill-rule="nonzero"></path>
                        </g>
                    </g>
                </g>
            </g>
        </g>
    </g>
</svg>