<?xml version="1.0" encoding="UTF-8"?>
<svg width="24px" height="22px" viewBox="0 0 24 22" version="1.1" xmlns="http://www.w3.org/2000/svg" xmlns:xlink="http://www.w3.org/1999/xlink">
    <title>twitter</title>
    <defs>
        <path d="M0,0 L24,0 L24,20.995 L0,20.995 L0,0 Z" id="path-1"></path>
    </defs>
    <g id="twitter" stroke="none" fill="none" transform="translate(0, 0.2525)" xlink:href="#path-1" fill-rule="evenodd" stroke-width="1">
        <g id="Twitter" transform="translate(4, 2.4974)" fill="#62748E">
            <path d="M14.3553124,4.74112511 C14.365469,4.88325024 14.365469,5.02540588 14.365469,5.16753197 C14.365469,9.50253105 11.0660001,14.4974689 5.03553137,14.4974689 C3.17765656,14.4974689 1.45178123,13.9593754 0,13.0254068 C0.263968937,13.0558443 0.517750248,13.0660009 0.791875339,13.0660009 C2.32484429,13.0660009 3.73603142,12.5482512 4.86293778,11.6650009 C3.42131271,11.634532 2.21318763,10.6903763 1.79693741,9.39087582 C2,9.42131329 2.20303147,9.4416256 2.41625016,9.4416256 C2.71065656,9.4416256 3.00509444,9.40100098 3.27918806,9.32996941 C1.77665657,9.02537537 0.649719219,7.70559454 0.649719219,6.11168814 L0.649719219,6.07109451 C1.08625075,6.31475067 1.59390683,6.46703196 2.13193792,6.48731327 C1.24868771,5.89846992 0.670031528,4.89340687 0.670031528,3.7563448 C0.670031528,3.14721966 0.832437967,2.5888443 1.11671921,2.10153198 C2.73093788,4.09137535 5.15734419,5.39084435 7.87812543,5.53300095 C7.82737566,5.28934479 7.79690672,5.03556347 7.79690672,4.78175068 C7.79690672,2.97462559 9.25884458,1.50256348 11.0760938,1.50256348 C12.0202504,1.50256348 12.8730317,1.89850044 13.4720307,2.53809452 C14.2131243,2.39596939 14.9237805,2.12184429 15.5532494,1.74621964 C15.3095618,2.50765705 14.791812,3.14725113 14.1116248,3.55331326 C14.7715311,3.48228168 15.4111252,3.29950047 15.9999371,3.04571915 C15.5533123,3.69543839 14.9949055,4.27409458 14.3553124,4.74112606 L14.3553124,4.74112511 Z" id="Path" fill-rule="nonzero"></path>
        </g>
    </g>
</svg>